<?xml version="1.0" encoding="UTF-8"?>
<!DOCTYPE svg PUBLIC "-//W3C//DTD SVG 1.1//EN" "http://www.w3.org/Graphics/SVG/1.1/DTD/svg11.dtd">
<!-- Creator: CorelDRAW X7 -->
<svg xmlns="http://www.w3.org/2000/svg" xml:space="preserve" width="260px" height="240px" version="1.1" style="shape-rendering:geometricPrecision; text-rendering:geometricPrecision; image-rendering:optimizeQuality; fill-rule:evenodd; clip-rule:evenodd"
viewBox="0 0 260 240"
 xmlns:xlink="http://www.w3.org/1999/xlink">
 <defs>
  <style type="text/css">
   <![CDATA[
    .fil2 {fill:#FEFEFE;fill-rule:nonzero}
    .fil3 {fill:#FEFEFE;fill-rule:nonzero}
    .fil4 {fill:#2F358B;fill-rule:nonzero}
    .fil1 {fill:#006DB8;fill-rule:nonzero}
    .fil0 {fill:#2F318B;fill-rule:nonzero}
   ]]>
  </style>
 </defs>
 <g id="Layer_x0020_1">
  <metadata id="CorelCorpID_0Corel-Layer"/>
  <g id="_1893390632304">
   <path class="fil0" d="M238 207c0,0 -84,-28 -238,1 0,0 95,-83 15,-154 0,0 43,5 92,26l0 0c2,1 5,2 7,3l0 0c19,9 40,21 58,35 2,2 5,4 7,5 11,10 21,20 31,32 1,1 2,2 3,4 4,6 8,12 12,18 0,1 1,2 1,3 5,8 9,17 12,27z"/>
   <path class="fil1" d="M219 89c-3,1 -6,2 -9,4 3,-1 5,-2 7,-3 -9,10 -21,20 -33,30 -2,1 -4,2 -5,3 -2,-1 -5,-3 -7,-5 2,-1 4,-3 6,-4 44,-33 67,-75 52,-95 -9,-12 -30,-13 -56,-4 36,-17 67,-20 78,-6 12,16 -3,48 -33,80z"/>
   <path class="fil2" d="M172 118c2,2 5,4 7,5 -9,7 -19,13 -28,18 0,0 -1,1 -2,1 -41,23 -78,28 -90,12 -11,-14 0,-42 25,-71 -15,21 -20,42 -11,54 14,18 58,10 99,-19z"/>
   <path class="fil1" d="M219 89c-1,0 -1,1 -2,1 -2,1 -4,2 -7,3 3,-2 6,-3 9,-4z"/>
   <path class="fil1" d="M237 138c-2,0 -5,1 -7,3 2,-1 4,-2 6,-2 -6,6 -13,12 -20,17 -1,1 -2,2 -3,3 -1,-2 -2,-3 -3,-4 1,-1 2,-2 3,-3 26,-19 40,-45 31,-57 -4,-6 -14,-8 -27,-5 1,0 1,-1 2,-1 18,-7 33,-8 39,0 7,10 -2,29 -21,49z"/>
   <path class="fil2" d="M210 155c1,1 2,2 3,4 -6,3 -11,7 -16,10l0 0c-1,0 -1,0 -2,1 -25,13 -47,17 -55,7 -5,-7 -1,-21 9,-35 2,-3 4,-5 7,-8 -2,2 -4,5 -5,7 -5,10 -6,19 -2,25 9,12 35,7 61,-11z"/>
   <path class="fil1" d="M210 93c3,-2 6,-3 9,-4 -1,0 -1,1 -2,1 -2,1 -4,2 -7,3z"/>
   <path class="fil1" d="M237 138c0,0 -1,1 -1,1 -2,0 -4,1 -6,2 2,-2 5,-3 7,-3z"/>
   <path class="fil1" d="M233 175c-2,2 -5,3 -7,5 0,-1 -1,-2 -1,-3 2,-1 4,-2 6,-4 15,-11 22,-25 17,-31 -2,-3 -6,-4 -12,-3 0,0 1,-1 1,-1 9,-3 16,-3 18,1 6,7 -4,23 -22,36z"/>
   <path class="fil3" d="M225 177c0,1 1,2 1,3 -15,9 -30,12 -34,6 -3,-3 -1,-10 3,-16 2,-3 3,-5 5,-7 -1,2 -2,4 -3,6l0 0c-2,4 -2,9 0,11 4,6 16,4 28,-3z"/>
   <path class="fil1" d="M237 138c0,0 -1,1 -1,1 -2,0 -4,1 -6,2 2,-2 5,-3 7,-3z"/>
   <path class="fil4" d="M145 71c16,-11 25,-27 20,-34 -5,-7 -23,-3 -39,9 -16,11 -25,27 -19,34 5,7 22,3 38,-9z"/>
   <path class="fil1" d="M7 240l-5 0 0 -27 13 0c4,0 6,0 8,1 1,2 2,4 2,6 0,3 0,5 -2,6 -1,1 -2,1 -3,1 3,2 4,4 5,9 0,3 0,3 0,4l-4 0c0,0 0,0 0,-1 -1,-1 -1,-2 -1,-3 0,-6 -3,-7 -9,-7l-4 0 0 11zm7 -15l0 0c3,0 4,0 5,-1 1,-1 2,-2 2,-3 0,-2 -1,-4 -2,-4 -1,-1 -2,-1 -5,-1l-7 0 0 9 7 0z"/>
   <polygon class="fil1" points="30,213 34,213 34,240 30,240 "/>
   <path class="fil1" d="M40 237l12 0c2,0 3,-1 4,-1 1,-1 2,-2 2,-4 0,-2 -1,-3 -3,-4 -1,0 -2,0 -4,0l-2 0c-4,0 -6,0 -7,-1 -2,-2 -3,-4 -3,-6 0,-3 1,-6 4,-7 1,-1 3,-1 7,-1l11 0 0 3 -11 0c-3,0 -4,0 -5,1 -1,1 -1,2 -1,3 0,3 1,4 6,4l1 0c5,0 7,1 9,2 1,1 2,4 2,6 0,4 -1,6 -4,7 -1,1 -3,1 -7,1l-11 0 0 -3z"/>
   <polygon class="fil1" points="64,216 64,213 87,213 87,216 78,216 78,240 73,240 73,216 "/>
   <path class="fil1" d="M110 216l-8 0c-4,0 -5,1 -7,3 -1,2 -1,3 -1,6l16 0 0 3 -16 0c0,2 0,4 1,5 2,3 3,4 7,4l8 0 0 3 -9 0c-5,0 -7,-1 -9,-4 -2,-2 -3,-5 -3,-9 0,-6 2,-10 5,-12 2,-2 4,-2 9,-2l7 0 0 3z"/>
   <path class="fil1" d="M120 240l-5 0 0 -27 5 0 0 27zm13 -27l0 0 5 0 -14 13 15 14 -6 0 -13 -14 13 -13z"/>
   <path class="fil1" d="M153 213c6,0 8,0 10,3 3,2 4,5 4,10 0,6 -2,11 -5,13 -2,1 -4,1 -9,1l-11 0 0 -27 11 0zm-6 24l0 0 7 0c3,0 5,-1 7,-3 1,-2 1,-4 1,-7 0,-4 -1,-7 -2,-9 -1,-1 -3,-2 -6,-2l-7 0 0 21z"/>
   <polygon class="fil1" points="171,213 176,213 176,240 171,240 "/>
   <path class="fil1" d="M186 240l-4 0 0 -27 4 0 0 27zm13 -27l0 0 6 0 -14 13 15 14 -6 0 -14 -14 13 -13z"/>
   <polygon class="fil1" points="207,216 207,213 230,213 230,216 221,216 221,240 216,240 216,216 "/>
   <polygon class="fil1" points="233,213 238,213 238,240 233,240 "/>
  </g>
 </g>
</svg>
